<svg id="Capa_1" enable-background="new 0 0 512 512" height="512" viewBox="0 0 512 512" width="512" xmlns="http://www.w3.org/2000/svg"><g><path d="m112.459 68.913c57.604 0 104.301 46.697 104.301 104.301 0 36.004-18.243 67.747-45.989 86.49.099 9.638 1.723 27.496 11.266 41.589 2.215 3.271-.382 7.631-4.305 7.175-14.43-1.676-39.918-8.026-55.516-31.412-3.213.298-6.466.458-9.757.458-57.604 0-104.301-46.697-104.301-104.301 0-57.603 46.697-104.3 104.301-104.3z" fill="#f9f3f1"/><path d="m170.768 259.701c.104 9.642 1.721 27.494 11.269 41.594 2.219 3.266-.384 7.63-4.302 7.174-4.105-.477-9.113-1.337-14.535-2.861-.114-.238-.249-.477-.404-.716-6.878-10.16-8.769-29.066-9.328-42.431-.302-7.225 2.89-14.101 8.429-18.749 22.8-19.134 37.299-47.844 37.299-79.94 0-36.182-18.433-68.072-46.415-86.775 37.582 15.758 63.977 52.905 63.977 96.219 0 36.006-18.236 67.741-45.99 86.485z" fill="#efe2dd"/><path d="m212.142 338.332c11.847-7.249 26.266-3.449 37.325 3.291 4.594 2.799 8.911 6.019 13.302 9.118 10.781 7.609 20.69 15.977 30.596 24.568 3.169 2.748 6.771 5.4 11.058 5.912 6.049.723 10.948-4.654 13.855-9.317 33.822-54.26 64.246-110.258 91.338-168.082 2.331-4.976 4.177-12.011.28-16.694-2.763-3.318-6.947-4.898-10.977-6.061-12.597-3.638-25.01-7.399-37.26-12.306-4.99-1.999-10.04-3.869-14.888-6.201-11.671-5.612-22.705-15.643-23.068-29.527-.502-19.208 9.643-41.991 17.442-59.579 9.766-22.027 22.376-42.821 38.018-61.175 12.474-14.637 35.775-16.395 53.084-4.169 6.624 4.679 14.428 10.643 23.564 18.245 0 0 56.665 46.036 46.896 127.611-3.289 27.462-11.902 54.271-21.611 80.077-5.243 13.935-10.98 27.684-17.046 41.281-7.338 16.449-15.229 32.654-23.711 48.546-15.283 28.633-32.844 56.699-51.679 83.105-17.409 24.407-36.36 48.498-59.156 68.118-.798.687-1.602 1.368-2.411 2.043-63.131 52.577-132.586 30.078-132.586 30.078-11.348-3.529-20.599-6.833-28.128-9.845-19.676-7.872-30.877-28.379-25.382-46.808 6.89-23.11 17.477-45.004 30.646-65.181 10.513-16.112 24.109-37.02 40.499-47.048z" fill="#7acaa6"/><path d="m502.71 153.965c-3.297 27.463-11.902 54.273-21.616 80.077-5.246 13.934-10.979 27.691-17.044 41.283-7.34 16.453-15.23 32.657-23.71 48.55-15.281 28.635-32.844 56.699-51.681 83.105-17.407 24.405-36.358 48.499-59.156 68.114-.798.684-1.607 1.368-2.416 2.042-63.127 52.583-132.578 30.076-132.578 30.076-11.352-3.525-20.6-6.832-28.137-9.839-5.536-2.219-10.409-5.432-14.421-9.331 7.185 2.82 15.872 5.878 26.343 9.133 0 0 69.451 22.508 132.588-30.075.809-.674 1.607-1.358 2.405-2.043 22.798-19.615 41.749-43.709 59.156-68.113 18.837-26.406 36.4-54.47 51.681-83.105 8.481-15.893 16.37-32.097 23.71-48.55 6.065-13.591 11.808-27.349 17.044-41.283 9.714-25.804 18.329-52.614 21.616-80.078 9.766-81.57-46.902-127.612-46.902-127.612-6.179-5.142-11.746-9.528-16.754-13.281 3.255 1.275 6.417 2.965 9.403 5.08 6.625 4.676 14.431 10.637 23.565 18.236.002.002 56.67 46.043 46.904 127.614z" fill="#57be92"/><path d="m62.169 154.502h23.28c4.583 0 8.297-3.715 8.297-8.297v-23.28c0-4.583 3.715-8.298 8.298-8.298h20.829c4.583 0 8.297 3.715 8.297 8.298v23.28c0 4.583 3.715 8.297 8.298 8.297h23.28c4.583 0 8.298 3.715 8.298 8.298v20.829c0 4.583-3.715 8.298-8.298 8.298h-23.28c-4.583 0-8.298 3.715-8.298 8.297v23.28c0 4.583-3.715 8.298-8.297 8.298h-20.829c-4.583 0-8.298-3.715-8.298-8.298v-23.28c0-4.583-3.715-8.297-8.297-8.297h-23.28c-4.583 0-8.297-3.715-8.297-8.298v-20.829c0-4.583 3.715-8.298 8.297-8.298z" fill="#ee6161"/><g fill="#e94444"><path d="m118.735 191.93h20.735c-4.582 0-8.294 3.712-8.294 8.294v23.285c0 4.583-3.722 8.294-8.304 8.294h-20.735c4.582 0 8.294-3.711 8.294-8.294v-23.285c-.001-4.583 3.721-8.294 8.304-8.294z"/><path d="m139.469 154.504h-20.735c-4.582 0-8.304-3.722-8.304-8.304v-23.275c0-4.583-3.712-8.294-8.294-8.294h20.735c4.582 0 8.304 3.711 8.304 8.294v23.275c0 4.582 3.712 8.304 8.294 8.304z"/><path d="m171.048 162.798v20.828c0 4.582-3.722 8.304-8.304 8.304h-20.735c4.582 0 8.294-3.722 8.294-8.304v-20.828c0-4.583-3.712-8.294-8.294-8.294h20.735c4.582 0 8.304 3.711 8.304 8.294z"/></g></g></svg>